<?xml version="1.0" standalone="no"?>
<!DOCTYPE svg PUBLIC "-//W3C//DTD SVG 20010904//EN"
 "http://www.w3.org/TR/2001/REC-SVG-20010904/DTD/svg10.dtd">
<svg version="1.0" xmlns="http://www.w3.org/2000/svg"
 width="250.000000pt" height="250.000000pt" viewBox="0 0 250.000000 250.000000"
 preserveAspectRatio="xMidYMid meet">
<metadata>
Created by potrace 1.11, written by Peter Selinger 2001-2013
</metadata>
<g transform="translate(0.000000,250.000000) scale(0.100000,-0.100000)"
fill="#000000" stroke="none">
<path d="M1005 2243 c-260 -27 -461 -257 -458 -523 1 -62 7 -98 22 -132 14
-33 17 -48 8 -49 -208 -9 -338 -86 -457 -270 -63 -98 -94 -204 -94 -329 -1
-116 3 -141 31 -215 66 -173 243 -309 438 -336 186 -26 384 30 512 145 l50 46
23 -63 c66 -180 181 -271 345 -271 68 -1 89 4 137 27 104 51 189 173 239 342
12 39 22 71 24 73 2 2 22 -10 45 -27 204 -148 476 -19 575 273 82 242 22 529
-142 675 -199 177 -491 93 -568 -163 -40 -134 -20 -195 66 -196 51 0 77 25 94
94 32 124 78 173 165 177 89 4 168 -66 212 -187 27 -74 33 -226 13 -302 -39
-150 -133 -252 -233 -252 -16 0 -49 14 -74 30 -44 29 -68 57 -138 157 -32 46
-67 61 -108 47 -41 -15 -60 -52 -67 -134 -18 -219 -87 -389 -177 -440 -72 -40
-172 -1 -216 85 -23 46 -42 120 -47 183 -12 144 -22 167 -80 178 -44 8 -73 -9
-132 -81 -88 -106 -152 -164 -216 -194 -272 -129 -572 15 -594 286 -13 167 95
367 236 434 56 27 184 33 276 13 79 -17 122 -4 141 41 19 46 13 65 -51 155
-66 94 -83 138 -79 205 13 194 188 342 374 314 99 -15 200 -87 221 -159 10
-31 8 -44 -9 -84 -33 -74 -104 -93 -189 -51 -82 41 -159 -53 -108 -131 44 -68
223 -93 317 -45 166 85 224 290 128 447 -50 79 -184 170 -285 192 -58 13 -127
19 -170 15z"/>
</g>
</svg>
